<svg width="25" height="40" viewBox="0 0 25 40" fill="none" xmlns="http://www.w3.org/2000/svg">
<path d="M0 22.1245C0 9.90549 10.2432 0 22.8788 0H24.4C24.7314 0 25 0.268629 25 0.6V8.61445C25 8.92976 24.7559 9.19128 24.4414 9.21302L20.8499 9.46121C16.0329 9.79409 11.8687 12.8348 10.219 17.2239C9.73193 18.5199 9.48276 19.8882 9.48276 21.2672V31.6082C9.48276 32.0413 9.03776 32.3318 8.64122 32.1574L0.358464 28.5149C0.140632 28.4191 0 28.2036 0 27.9657V22.1245Z" fill="url(#paint0_linear_1_133)"/>
<path d="M11.8182 22.8861C11.8182 22.4558 12.2577 22.1654 12.6535 22.3341L24.6353 27.4425C24.8565 27.5368 25 27.754 25 27.9944V39.0664C25 39.5032 24.5481 39.7936 24.1507 39.6122L12.1689 34.1402C11.9553 34.0426 11.8182 33.8293 11.8182 33.5944V22.8861Z" fill="url(#paint1_linear_1_133)"/>
<defs>
<linearGradient id="paint0_linear_1_133" x1="12.5" y1="0" x2="12.5" y2="40" gradientUnits="userSpaceOnUse">
<stop stop-color="#8BC8F3"/>
<stop offset="1" stop-color="#4C92C6"/>
</linearGradient>
<linearGradient id="paint1_linear_1_133" x1="12.5" y1="0" x2="12.5" y2="40" gradientUnits="userSpaceOnUse">
<stop stop-color="#8BC8F3"/>
<stop offset="1" stop-color="#4C92C6"/>
</linearGradient>
</defs>
</svg>
